PathFileType	4	(X/Y/Z)	s08c0301.trc
DataRate	CameraRate	NumFrames	NumMarkers	Units	OrigDataRate	OrigDataStartFrame	OrigNumFrames
200	200	4	50	mm	200	250	2000
Frame#	Time	racr			lacr			c7			jug			rlel			rdr			llel			ldr			s2			lic			ric			lasi			rasi			rpsi			lpsi			rgt			lgt			rth1			rth2			rth3			rth4			rlfc			rmfc			rsh1			rsh2			rsh3			rsh4			rlmal			rmmal			rcal			rtoe			rmt5			lth1			lth2			lth4			lth3			llfc			lmfc			llmal			lmmal			lcal			lmt5			lsh1			lsh2			lsh3			lsh4			ltoe			SBIKE			LBIKE			RBIKE			
		X1	Y1	Z1	X2	Y2	Z2	X3	Y3	Z3	X4	Y4	Z4	X5	Y5	Z5	X6	Y6	Z6	X7	Y7	Z7	X8	Y8	Z8	X9	Y9	Z9	X10	Y10	Z10	X11	Y11	Z11	X12	Y12	Z12	X13	Y13	Z13	X14	Y14	Z14	X15	Y15	Z15	X16	Y16	Z16	X17	Y17	Z17	X18	Y18	Z18	X19	Y19	Z19	X20	Y20	Z20	X21	Y21	Z21	X22	Y22	Z22	X23	Y23	Z23	X24	Y24	Z24	X25	Y25	Z25	X26	Y26	Z26	X27	Y27	Z27	X28	Y28	Z28	X29	Y29	Z29	X30	Y30	Z30	X31	Y31	Z31	X32	Y32	Z32	X33	Y33	Z33	X34	Y34	Z34	X35	Y35	Z35	X36	Y36	Z36	X37	Y37	Z37	X38	Y38	Z38	X39	Y39	Z39	X40	Y40	Z40	X41	Y41	Z41	X42	Y42	Z42	X43	Y43	Z43	X44	Y44	Z44	X45	Y45	Z45	X46	Y46	Z46	X47	Y47	Z47	X48	Y48	Z48	X49	Y49	Z49	X50	Y50	Z50	
250	1.2500	848.968065	1350.423710	-48.444873	853.055816	1344.478627	-370.024561	840.762241	1402.190212	-202.369608	758.810585	1262.293285	-198.158739	679.918909	1131.612104	66.142668	800.385092	904.359479	-50.912680	707.167019	1130.912336	-506.603638	812.958548	891.335119	-431.571845	263.695682	1277.800367	-280.659335	444.267114	1246.899593	-392.297852	387.280963	1259.005399	-84.470522	446.628822	1191.712216	-355.271688	416.768348	1202.731765	-117.903476	292.339141	1311.141755	-223.793449	309.536622	1316.234172	-317.700521	296.645729	1158.772571	-76.156659	376.417140	1134.522507	-442.158235	391.278651	1009.960175	-52.529836	455.002374	948.423079	-45.131712	480.795302	865.361934	-49.972586	486.633951	967.670045	-46.864779	540.948851	759.032110	-56.489273	531.634662	749.143315	-170.532423	463.479245	649.776059	-33.188304	454.259289	561.704742	-51.193151	402.950064	493.214305	-61.152686	484.506365	554.523055	-77.101748	352.501798	383.440100	-73.615011	377.288261	401.810502	-159.192370	271.832099	364.516117	-121.834749	563.135052	314.506336	-102.675496	468.793134	293.795997	-41.371477	427.800717	1008.836940	-432.119419	476.006137	937.686189	-417.182399	504.780500	949.534224	-398.311654	484.323756	848.903504	-416.977547	485.245453	720.180701	-400.041266	461.476525	699.287845	-293.517276	143.785191	472.004615	-414.543913	175.734668	462.075578	-329.030012	96.506742	511.413519	-371.983574	145.122734	299.924180	-421.488367	384.674730	638.595853	-427.823708	329.694357	575.156201	-412.657075	248.112292	540.677315	-417.143118	342.872630	558.993042	-376.053999	210.494806	245.208058	-350.440664	-139.043649	941.365466	-228.081433	16.618983	80.188669	-427.733324	16.573649	79.995395	-29.304373	
251	1.2550	851.368375	1348.315750	-51.159020	852.738666	1344.247760	-373.081563	841.512704	1401.756010	-204.936070	760.104969	1261.524050	-201.373927	682.325516	1131.018412	66.754310	800.365314	904.069855	-50.860348	706.734744	1130.557723	-508.100699	812.503588	891.269836	-432.068508	262.755226	1275.370853	-277.802560	442.303886	1245.801363	-390.713953	389.043686	1254.962471	-83.028821	445.817712	1191.195868	-354.308256	417.235703	1198.307987	-116.306300	292.422858	1308.983558	-220.228083	308.079251	1314.068846	-315.138035	296.618303	1154.347668	-75.488919	376.633936	1134.361140	-441.384871	389.066528	1004.088197	-53.014016	451.584266	941.513272	-45.739374	475.568884	857.744519	-51.806847	483.605612	959.955127	-47.590886	534.860570	751.139318	-58.601402	528.849338	739.246566	-169.762040	458.557828	640.705047	-34.545716	450.577414	552.512582	-52.151772	400.343870	483.041232	-61.664408	481.479507	545.045554	-78.785284	350.963332	372.736033	-73.326448	375.610283	391.174327	-158.895792	270.421135	353.823847	-121.583073	561.776285	303.959714	-102.024084	467.340876	282.644197	-41.428455	429.872926	1009.185763	-431.423530	479.459748	939.175170	-415.890374	507.686505	951.539895	-396.547652	489.864457	850.558675	-415.989305	492.990046	722.839532	-397.972027	467.488237	701.337067	-291.940132	145.844059	482.710624	-414.132505	177.957936	472.358373	-328.576589	98.473701	522.303352	-371.757669	146.782578	310.865780	-421.499292	391.316493	643.707546	-426.047312	334.545069	581.703448	-411.492007	252.101576	549.248629	-416.225746	347.042436	564.821652	-374.426322	212.072335	256.011371	-350.356050	-139.055315	941.311909	-227.929821	16.587888	80.171762	-427.705135	16.567502	79.980833	-29.282574	
252	1.2600	853.893722	1346.629093	-54.106945	852.164079	1344.388844	-376.577818	842.145107	1401.462527	-207.766685	761.534108	1260.762429	-204.560739	685.286199	1131.027159	67.688972	800.452000	903.684220	-50.546967	705.977069	1130.349101	-510.251871	812.144985	891.012618	-431.428346	262.346604	1273.543125	-275.708161	440.855826	1245.738435	-389.579186	391.166714	1250.765330	-81.555128	444.957396	1190.667294	-353.322905	417.984453	1193.543413	-114.849435	292.659864	1306.265147	-217.794815	307.406818	1312.688989	-312.830346	296.932604	1149.471929	-74.752818	376.520732	1134.385966	-440.524922	387.057711	997.944185	-53.486308	448.221847	933.803523	-46.883153	470.579032	849.841242	-53.715791	480.537592	951.886390	-48.150466	528.769952	743.073669	-60.904186	521.728044	730.980628	-172.466133	453.226771	631.491206	-35.903680	446.522881	543.144590	-53.026234	397.256584	473.015976	-62.242449	477.710487	536.429469	-78.796823	348.999341	362.163107	-72.956957	373.032508	380.463753	-158.815870	268.464062	343.438646	-121.203619	559.605967	291.506181	-103.335290	465.291832	271.660999	-41.509949	431.751161	1009.509955	-430.927134	482.875412	940.684108	-414.848028	510.642635	953.779576	-395.234969	495.405057	852.265358	-414.817179	500.687405	725.764561	-395.728177	476.317616	703.346281	-289.320241	148.455586	493.365608	-413.566585	180.908244	482.485356	-328.220197	100.813243	532.978459	-371.407456	149.228495	321.672171	-421.440361	397.994368	649.015305	-424.126353	339.589121	588.213127	-409.967596	256.415930	557.881600	-415.123112	351.712629	571.010541	-373.120756	214.325476	266.664590	-350.238253	-138.907646	941.371526	-227.853929	16.583543	80.172305	-427.677570	16.545945	79.951538	-29.259409	
253	1.2650	856.377674	1345.358637	-57.464677	851.437433	1344.720279	-380.176949	842.661107	1401.504823	-210.731510	762.879810	1260.325106	-207.870718	688.772849	1131.329812	68.726744	800.475453	903.145157	-50.119228	705.245396	1130.100668	-512.523306	811.742237	890.787644	-431.131202	261.970674	1271.882356	-272.702112	439.232180	1245.769798	-388.368055	393.535389	1246.371884	-80.059230	444.050001	1190.252843	-352.291305	418.888166	1188.652702	-113.229930	293.029988	1303.450594	-215.368580	306.532071	1311.376104	-309.992279	297.587574	1144.592843	-73.855339	376.030775	1134.636735	-439.439986	385.193964	991.581441	-53.885529	444.841078	926.128235	-48.023391	465.403645	841.715873	-55.534024	477.478673	943.559372	-48.922096	521.877717	734.895294	-63.622357	513.815782	722.766580	-175.002810	447.642654	622.438060	-36.947862	442.026253	533.912744	-53.956482	393.720378	463.082559	-62.712398	473.175666	527.685511	-79.729713	346.484516	351.755914	-72.567504	370.202714	369.950909	-158.622357	265.850502	333.299270	-120.645406	556.852101	280.254450	-103.566115	462.603866	260.782440	-41.547487	433.592911	1009.892520	-430.576900	486.317026	942.376950	-413.989448	513.754492	956.233435	-394.343643	500.838359	854.090624	-413.271451	508.343906	729.082686	-393.493286	483.192401	706.369488	-288.071235	151.451673	504.110747	-412.839583	183.346160	492.464397	-327.595688	103.305835	543.599456	-370.769300	152.290514	332.600875	-421.464834	404.580774	654.452383	-421.743424	344.976466	595.386116	-408.878832	260.959949	566.452091	-413.786787	356.267840	577.028713	-371.179487	217.494928	277.452998	-350.287064	-138.766407	941.406618	-227.877983	16.619495	80.152131	-427.637625	16.573305	79.964962	-29.235276	
